<svg xmlns="http://www.w3.org/2000/svg" viewBox="0 0 800 450" preserveAspectRatio="xMidYMid slice" role="img" aria-label="Comparison of the New Zealand and Australian citizenship tests, with a koru representing NZ on the left and a wattle blossom representing Australia on the right">
  <!-- Background -->
  <rect width="800" height="450" fill="#f5f0e6"/>

  <!-- Top kicker -->
  <text x="400.0" y="55" text-anchor="middle" font-family="Lexend, sans-serif" font-weight="700" font-size="12" fill="#c8102e" letter-spacing="3">TEST COMPARISON</text>

  <!-- Vertical divider (subtle dashed) -->
  <line x1="400.0" y1="100" x2="400.0" y2="380" stroke="#1a1a1a" stroke-width="1.5" stroke-dasharray="3,6" opacity="0.35"/>

  <!-- VS badge in centre -->
  <circle cx="400.0" cy="225.0" r="26" fill="#fafaf8" stroke="#1a1a1a" stroke-width="2"/>
  <text x="400.0" y="230.0" text-anchor="middle" font-family="Lexend, sans-serif" font-weight="800" font-size="14" fill="#1a1a1a" letter-spacing="1">VS</text>

  <!-- LEFT: NZ -->
  <g transform="translate(200, 220.0)">
    <path d="M 56.6,41.1 L 59.4,36.2 L 61.7,31.2 L 63.6,26.0 L 65.1,20.7 L 66.1,15.3 L 66.7,9.9 L 66.9,4.4 L 66.6,-0.9 L 65.9,-6.2 L 64.8,-11.4 L 63.2,-16.5 L 61.3,-21.4 L 59.0,-26.0 L 56.4,-30.5 L 53.4,-34.7 L 50.1,-38.6 L 46.5,-42.2 L 42.7,-45.5 L 38.7,-48.4 L 34.4,-51.0 L 30.0,-53.3 L 25.5,-55.1 L 20.8,-56.6 L 16.1,-57.7 L 11.4,-58.4 L 6.6,-58.7 L 1.8,-58.6 L -2.8,-58.2 L -7.4,-57.4 L -11.9,-56.2 L -16.3,-54.6 L -20.5,-52.8 L -24.5,-50.6 L -28.2,-48.1 L -31.8,-45.4 L -35.0,-42.3 L -38.0,-39.1 L -40.7,-35.7 L -43.1,-32.0 L -45.2,-28.3 L -47.0,-24.3 L -48.4,-20.3 L -49.5,-16.3 L -50.2,-12.2 L -50.7,-8.0 L -50.7,-3.9 L -50.5,0.2 L -49.9,4.2 L -49.0,8.1 L -47.8,11.9 L -46.3,15.6 L -44.5,19.1 L -42.5,22.4 L -40.2,25.5 L -37.7,28.4 L -35.0,31.1 L -32.1,33.5 L -29.1,35.7 L -25.9,37.6 L -22.6,39.2 L -19.2,40.5 L -15.8,41.6 L -12.3,42.3 L -8.8,42.8 L -5.3,42.9 L -1.8,42.8 L 1.6,42.4 L 5.0,41.8 L 8.2,40.9 L 11.4,39.7 L 14.4,38.3 L 17.2,36.6 L 19.9,34.8 L 22.4,32.8 L 24.8,30.6 L 26.9,28.2 L 28.7,25.7 L 30.4,23.1 L 31.8,20.4 L 33.0,17.6 L 34.0,14.7 L 34.7,11.8 L 35.1,8.9 L 35.3,6.0 L 35.3,3.1 L 35.1,0.2 L 34.6,-2.5 L 33.9,-5.2 L 33.0,-7.9 L 31.9,-10.4 L 30.6,-12.7 L 29.2,-15.0 L 27.5,-17.1 L 25.8,-19.0 L 23.9,-20.8 L 21.9,-22.3 L 19.8,-23.7 L 17.6,-24.9 L 15.3,-25.9 L 13.1,-26.8 L 10.7,-27.4 L 8.4,-27.8 L 6.1,-28.0 L 3.7,-28.0 L 1.5,-27.9 L -0.8,-27.5 L -2.9,-27.0 L -5.0,-26.3 L -7.0,-25.5 L -8.9,-24.5 L -10.7,-23.4 L -12.4,-22.1 L -13.9,-20.8 L -15.3,-19.3 L -16.5,-17.7 L -17.6,-16.1 L -18.6,-14.4 L -19.4,-12.7 L -20.0,-10.9 L -20.5,-9.1 L -20.8,-7.3 L -21.0,-5.6 L -21.1,-3.8 L -20.9,-2.1 L -20.7,-0.4 L -20.3,1.3 L -19.8,2.8 L -19.1,4.3 L -18.4,5.8 L -17.6,7.1 L -16.6,8.3 L -15.6,9.5 L -14.5,10.5 L -13.4,11.4 L -12.2,12.2 L -10.9,12.9 L -9.7,13.4 L -8.4,13.9 L -7.1,14.2 L -5.8,14.4 L -4.5,14.5 L -3.3,14.5 L -2.1,14.4 L -0.9,14.2 L 0.2,13.9 L 1.3,13.5 L 2.3,13.0 L 3.3,12.5 L 4.2,11.9 L 5.0,11.2 L 5.7,10.5 L 6.4,9.7 L 6.9,8.9 L 7.4,8.1 L 7.8,7.3 L 8.1,6.4 L 8.4,5.6 L 8.5,4.8 L 8.6,3.9 L 8.6,3.1 L 8.5,2.4 L 8.4,1.6 L 8.2,0.9 L 8.0,0.2 L 7.7,-0.4 L 7.3,-1.0 L 7.0,-1.5 L 6.6,-2.0 L 6.1,-2.4 L 5.7,-2.8 L 5.2,-3.1 L 4.7,-3.3 L 4.2,-3.5 L 3.8,-3.7 L 3.3,-3.8 L 2.8,-3.9 L 2.4,-3.9 L 2.0,-3.9 L 1.6,-3.8 L 1.2,-3.8" fill="none" stroke="#0d4f4a" stroke-width="11" stroke-linecap="round" stroke-linejoin="round"/>
    <circle cx="1.2" cy="-3.8" r="8" fill="#0d4f4a"/>
  </g>

  <!-- NZ label -->
  <text x="200" y="365" text-anchor="middle" font-family="Lexend, sans-serif" font-weight="800" font-size="22" fill="#1a1a1a" letter-spacing="1">NEW ZEALAND</text>
  <text x="200" y="392" text-anchor="middle" font-family="Lexend, sans-serif" font-weight="500" font-size="13" fill="#5a5a5a">5 years residency  ·  6 attempts</text>

  <!-- RIGHT: AU (wattle blossom) -->
  <path d="M 582 259.0 Q 550 285.0, 530 317.0 Q 560 297.0, 582 259.0 Z" fill="#1f5f3a" opacity="0.85"/>
  <path d="M 618 259.0 Q 650 285.0, 670 317.0 Q 640 297.0, 618 259.0 Z" fill="#1f5f3a" opacity="0.85"/>
  <line x1="600" y1="262.0" x2="600" y2="302.0" stroke="#1f5f3a" stroke-width="3" stroke-linecap="round"/>
  <circle cx="668.1" cy="196.0" r="8.8" fill="#ffcd00"/>
  <circle cx="670.4" cy="211.8" r="10.0" fill="#ffcd00"/>
  <circle cx="658.0" cy="231.6" r="9.3" fill="#ffcd00"/>
  <circle cx="651.3" cy="241.7" r="9.5" fill="#ffcd00"/>
  <circle cx="637.4" cy="253.2" r="9.9" fill="#ffcd00"/>
  <circle cx="617.6" cy="262.0" r="9.8" fill="#ffcd00"/>
  <circle cx="597.9" cy="263.0" r="10.4" fill="#ffcd00"/>
  <circle cx="580.5" cy="262.3" r="8.5" fill="#ffcd00"/>
  <circle cx="562.3" cy="254.0" r="8.3" fill="#ffcd00"/>
  <circle cx="550.4" cy="248.7" r="9.8" fill="#ffcd00"/>
  <circle cx="536.2" cy="229.2" r="9.6" fill="#ffcd00"/>
  <circle cx="531.3" cy="210.0" r="9.7" fill="#ffcd00"/>
  <circle cx="528.3" cy="192.6" r="10.6" fill="#ffcd00"/>
  <circle cx="530.4" cy="175.8" r="8.1" fill="#ffcd00"/>
  <circle cx="538.7" cy="161.8" r="8.2" fill="#ffcd00"/>
  <circle cx="550.2" cy="147.8" r="8.8" fill="#ffcd00"/>
  <circle cx="565.7" cy="133.7" r="9.1" fill="#ffcd00"/>
  <circle cx="580.0" cy="128.3" r="10.8" fill="#ffcd00"/>
  <circle cx="601.1" cy="123.4" r="8.5" fill="#ffcd00"/>
  <circle cx="619.4" cy="128.8" r="9.1" fill="#ffcd00"/>
  <circle cx="638.9" cy="134.6" r="9.7" fill="#ffcd00"/>
  <circle cx="652.6" cy="144.3" r="10.3" fill="#ffcd00"/>
  <circle cx="658.1" cy="159.3" r="8.9" fill="#ffcd00"/>
  <circle cx="666.5" cy="175.5" r="10.8" fill="#ffcd00"/>
  <circle cx="640.9" cy="204.9" r="9.0" fill="#ffd633"/>
  <circle cx="638.2" cy="220.1" r="8.4" fill="#ffd633"/>
  <circle cx="623.8" cy="229.2" r="8.7" fill="#ffd633"/>
  <circle cx="609.4" cy="237.7" r="9.7" fill="#ffd633"/>
  <circle cx="592.2" cy="235.8" r="10.0" fill="#ffd633"/>
  <circle cx="577.2" cy="228.8" r="7.1" fill="#ffd633"/>
  <circle cx="564.3" cy="220.7" r="9.4" fill="#ffd633"/>
  <circle cx="560.2" cy="203.1" r="8.1" fill="#ffd633"/>
  <circle cx="558.0" cy="184.3" r="9.9" fill="#ffd633"/>
  <circle cx="567.4" cy="171.3" r="9.2" fill="#ffd633"/>
  <circle cx="576.7" cy="158.4" r="7.8" fill="#ffd633"/>
  <circle cx="592.7" cy="154.8" r="8.3" fill="#ffd633"/>
  <circle cx="608.9" cy="150.0" r="9.6" fill="#ffd633"/>
  <circle cx="623.3" cy="158.6" r="7.5" fill="#ffd633"/>
  <circle cx="638.9" cy="171.5" r="7.9" fill="#ffd633"/>
  <circle cx="643.2" cy="187.2" r="7.5" fill="#ffd633"/>
  <circle cx="620.4" cy="196.1" r="8.6" fill="#ffb700"/>
  <circle cx="612.1" cy="207.2" r="7.6" fill="#ffb700"/>
  <circle cx="602.2" cy="217.6" r="8.8" fill="#ffb700"/>
  <circle cx="585.7" cy="207.5" r="7.1" fill="#ffb700"/>
  <circle cx="577.2" cy="193.3" r="7.2" fill="#ffb700"/>
  <circle cx="587.5" cy="182.6" r="8.5" fill="#ffb700"/>
  <circle cx="601.0" cy="177.1" r="8.0" fill="#ffb700"/>
  <circle cx="613.4" cy="181.9" r="8.7" fill="#ffb700"/>
  <circle cx="600" cy="195.0" r="10" fill="#e89400"/>

  <!-- AU label -->
  <text x="600" y="365" text-anchor="middle" font-family="Lexend, sans-serif" font-weight="800" font-size="22" fill="#1a1a1a" letter-spacing="1">AUSTRALIA</text>
  <text x="600" y="392" text-anchor="middle" font-family="Lexend, sans-serif" font-weight="500" font-size="13" fill="#5a5a5a">4 years residency  ·  unlimited attempts</text>

</svg>
